<?xml version="1.0" encoding="UTF-8"?>
<svg id="Ebene_2" data-name="Ebene 2" xmlns="http://www.w3.org/2000/svg" viewBox="0 0 165.48 270.02">
  <defs>
    <style>
      .cls-1 {
        fill: #00a79b;
      }

      .cls-2 {
        fill: blue;
      }

      .cls-3 {
        fill: #fcfcfd;
      }
    </style>
  </defs>
  <g id="Layer_1" data-name="Layer 1">
    <g>
      <path class="cls-3" d="m.02,126.09c-.2,7.18,1.19,13.99,4.5,20.41,16.31,31.67,32.59,63.36,48.88,95.05,3.43,6.66,6.69,13.43,10.35,19.96,6.29,11.22,18.04,11.34,24.72.39.48-.78.92-1.59,1.35-2.4,6.08-11.66,12.42-23.19,18.16-35.02,6.08-12.54,6.52-25.77.39-38.19-13.55-27.42-27.64-54.57-41.95-81.6-8.38-15.83-26.47-22.82-41.62-16.97C9.48,93.62.04,108.25.02,126.09Z"/>
      <path class="cls-1" d="m164.65,105.11c-7.41,15.06-14.82,30.12-22.23,45.18-3.45,7.01-6.81,14.06-10.34,21.02-2.61,5.15-6.26,9.21-12.53,9.42-6.28.21-10.25-3.52-13.07-8.6-6.26-11.24-12.59-22.44-18.48-33.87-4.7-9.13-5.78-19.03-3.99-29.11,2.19-12.29,14.64-22.94,27.88-23.37,13-.43,26.03-.22,39.04-.12,6.94.05,10.92,4.44,13.73,10.24,0,0,1.85,4.62,0,9.21Z"/>
      <path class="cls-2" d="m.02,126.09c.02-17.85,9.46-32.47,24.78-38.39,15.15-5.85,33.24,1.14,41.62,16.97,14.3,27.03,28.4,54.18,41.95,81.6,6.14,12.42,5.7,25.65-.39,38.19-5.74,11.83-12.08,23.36-18.16,35.02-.42.81-.87,1.62-1.35,2.4-6.68,10.95-18.43,10.84-24.72-.39-3.66-6.53-6.92-13.29-10.35-19.96-16.29-31.68-32.57-63.37-48.88-95.05C1.22,140.09-.18,133.27.02,126.09Z"/>
      <circle class="cls-1" cx="78.33" cy="42.79" r="42.79"/>
    </g>
  </g>
</svg>