<?xml version="1.0" encoding="UTF-8"?>
<svg id="Layer_2" data-name="Layer 2" xmlns="http://www.w3.org/2000/svg" viewBox="0 0 174 127">
  <defs>
    <style>
      .cls-1 {
        fill: blue;
        stroke: blue;
        stroke-width: 4px;
      }

      .cls-1, .cls-2 {
        stroke-miterlimit: 10;
      }

      .cls-2 {
        fill: #fff;
        stroke: #fff;
        stroke-width: .5px;
      }
    </style>
  </defs>
  <g id="Layer_1-2" data-name="Layer 1">
    <g>
      <rect class="cls-1" x="2" y="2" width="170" height="123" rx="14.8" ry="14.8"/>
      <path class="cls-2" d="m126.65,20.24H46.95c-5.91,0-10.71,5.96-10.71,13.3v59.14c0,7.33,4.81,13.3,10.71,13.3h79.7c5.91,0,10.71-5.96,10.71-13.3v-59.14c0-7.33-4.81-13.3-10.71-13.3Zm-29.17,46.07l34.39-35.62c.31.87.48,1.83.48,2.85v59.14c0,.82-.12,1.61-.33,2.35l-34.55-28.72Zm29.17-39.85c.45,0,.89.07,1.31.2l-36.38,37.67c-2.59,2.62-6.98,2.62-9.55.02L45.64,26.65c.42-.12.86-.2,1.31-.2h79.7ZM41.57,95.03c-.21-.74-.33-1.53-.33-2.35v-59.14c0-1.01.18-1.97.48-2.85l34.41,35.63-34.56,28.71Zm5.38,4.73c-.59,0-1.16-.11-1.69-.32l35.02-29.09c1.96,1.43,4.23,2.16,6.51,2.16s4.57-.73,6.54-2.18l35.01,29.11c-.54.21-1.1.32-1.69.32H46.95Z"/>
    </g>
  </g>
</svg>