<?xml version="1.0" encoding="UTF-8"?>
<svg id="Layer_2" data-name="Layer 2" xmlns="http://www.w3.org/2000/svg" viewBox="0 0 174 127">
  <defs>
    <style>
      .cls-1 {
        fill: #00a99d;
        stroke: #00a99d;
        stroke-width: 4px;
      }

      .cls-1, .cls-2 {
        stroke-miterlimit: 10;
      }

      .cls-2 {
        fill: #fff;
        stroke: #fff;
        stroke-width: .5px;
      }
    </style>
  </defs>
  <g id="Layer_1-2" data-name="Layer 1">
    <g>
      <rect class="cls-1" x="2" y="2" width="170" height="123" rx="14.8" ry="14.8"/>
      <path class="cls-2" d="m106.74,104.54c-12.19,0-26.46-7.61-40.55-21.7-15.23-15.23-22.91-30.65-21.62-43.43.67-6.63,5.86-17.59,11.38-18.57,3.71-.67,12.47-1.65,14.38,3.48l6.67,17.11c1.8,4.9-1.61,7.69-3.87,9.53-1.85,1.51-2.98,2.53-3.09,3.95-.14,1.82,3.17,7.81,9.73,14.33,6.25,6.2,12.52,9.83,14.28,9.69,1.43-.11,2.47-1.22,4.02-3.04,1.99-2.35,4.72-5.56,9.56-3.79l17.18,6.7c4.88,1.81,4.22,9.71,3.38,14.25l-2.24-.35,2.23.39c-.97,5.48-11.97,10.64-18.63,11.31-.93.09-1.87.14-2.82.14ZM61.66,24.82c-1.36,0-3,.14-4.87.47-2.24.39-7.07,8.24-7.71,14.57-1.15,11.4,6.06,25.53,20.31,39.77,14.21,14.21,28.32,21.41,39.71,20.25,6.36-.64,14.25-5.43,14.63-7.59h0s.01-.07.01-.08c1-5.43.31-8.89-.54-9.2l-17.17-6.69c-1.61-.59-2.37-.04-4.5,2.48-1.65,1.95-3.71,4.37-7.13,4.63-4.95.36-13.51-6.73-17.8-10.99-5.74-5.7-11.39-13.44-11.06-17.88.26-3.45,2.74-5.48,4.73-7.12,2.53-2.07,3.09-2.81,2.5-4.43l-6.67-17.1c-.22-.6-1.82-1.11-4.45-1.11Z"/>
    </g>
  </g>
</svg>